<?xml version="1.0" encoding="utf-8"?>
<!-- Generator: Adobe Illustrator 17.0.0, SVG Export Plug-In . SVG Version: 6.00 Build 0)  -->
<!DOCTYPE svg PUBLIC "-//W3C//DTD SVG 1.1//EN" "http://www.w3.org/Graphics/SVG/1.1/DTD/svg11.dtd">
<svg version="1.1" id="Layer_1" focusable="false" xmlns="http://www.w3.org/2000/svg" xmlns:xlink="http://www.w3.org/1999/xlink"
	 x="0px" y="0px" width="640px" height="1136px" viewBox="0 0 640 1136" enable-background="new 0 0 640 1136" xml:space="preserve"
	>
<g>
	<path fill="#3399FF" d="M320,248C143.226,248,0,391.226,0,568s143.226,320,320,320s320-143.226,320-320S496.774,248,320,248z"/>
	<circle fill="#3333CC" cx="320" cy="485.419" r="113.548"/>
	<path fill="#3333CC" d="M320,815.742c-75.742,0-143.613-34.323-189.032-88c24.258-45.677,71.742-77.161,127.097-77.161
		c3.097,0,6.194,0.516,9.161,1.419c16.774,5.419,34.323,8.903,52.774,8.903s36.129-3.484,52.774-8.903
		c2.968-0.903,6.065-1.419,9.161-1.419c55.355,0,102.839,31.484,127.097,77.161C463.613,781.419,395.742,815.742,320,815.742z"/>
</g>
</svg>
